<svg xmlns="http://www.w3.org/2000/svg" viewBox="0 0 512 512" width="512" height="512">
	<style>
		tspan { white-space:pre }
		.shp0 { fill: #ffffff } 
	</style>
	<g id="Layer">
		<g id="Layer">
			<path id="Layer" class="shp0" d="M32 271.69L32 463.69C32 481.36 46.37 495.69 64 495.69L224 495.69L224 271.69L32 271.69Z" />
		</g>
	</g>
	<g id="Layer">
		<g id="Layer">
			<path id="Layer" fill-rule="evenodd" class="shp0" d="M512 175.69L512 223.69C512 232.52 504.83 239.69 496 239.69L288 239.69L288 175.69L224 175.69L224 239.69L16 239.69C7.17 239.69 0 232.52 0 223.69L0 175.69C0 158.06 14.37 143.69 32 143.69L133.25 143.69C125.98 138.73 119.74 133.8 115.36 129.39C89.6 103.44 89.6 61.2 115.39 35.24C140.45 10.03 184.16 10.03 209.25 35.24C223.1 49.16 259.9 105.84 254.85 143.69L257.15 143.69C252.06 105.84 288.86 49.16 302.75 35.24C327.81 10.03 371.52 9.96 396.61 35.24C422.43 61.2 422.43 103.44 396.61 129.39C392.26 133.8 386.02 138.73 378.75 143.69L480 143.69C497.66 143.69 512 158.06 512 175.69ZM186.56 57.8C180.06 51.28 171.46 47.69 162.34 47.69C153.18 47.69 144.58 51.28 138.08 57.8C124.67 71.31 124.67 93.32 138.08 106.83C151.87 120.72 194.08 143.69 216.19 143.69C220.77 143.69 222.11 142.64 222.11 142.64C229.57 134.92 208.13 79.5 186.56 57.8ZM373.92 106.83C387.36 93.32 387.36 71.31 373.92 57.8C360.9 44.72 338.34 44.78 325.44 57.8C303.87 79.5 282.43 134.92 289.89 142.64C289.89 142.67 291.23 143.69 295.78 143.69C317.92 143.69 360.13 120.72 373.92 106.83Z" />
		</g>
	</g>
	<g id="Layer">
		<g id="Layer">
			<path id="Layer" class="shp0" d="M288 271.69L288 495.69L448 495.69C465.66 495.69 480 481.36 480 463.69L480 271.69L288 271.69Z" />
		</g>
	</g>
	<g id="Layer">
	</g>
	<g id="Layer">
	</g>
	<g id="Layer">
	</g>
	<g id="Layer">
	</g>
	<g id="Layer">
	</g>
	<g id="Layer">
	</g>
	<g id="Layer">
	</g>
	<g id="Layer">
	</g>
	<g id="Layer">
	</g>
	<g id="Layer">
	</g>
	<g id="Layer">
	</g>
	<g id="Layer">
	</g>
	<g id="Layer">
	</g>
	<g id="Layer">
	</g>
	<g id="Layer">
	</g>
</svg>